<?xml version="1.0" standalone="no"?>
<!DOCTYPE svg PUBLIC "-//W3C//DTD SVG 20010904//EN"
 "http://www.w3.org/TR/2001/REC-SVG-20010904/DTD/svg10.dtd">
<svg version="1.0" xmlns="http://www.w3.org/2000/svg"
 width="21.000000pt" height="21.000000pt" viewBox="0 0 21.000000 21.000000"
 preserveAspectRatio="xMidYMid meet">

<g transform="translate(0.000000,21.000000) scale(0.100000,-0.100000)"
fill="#000000" stroke="none">
<path d="M31 164 c-13 -16 -21 -41 -21 -64 0 -23 8 -48 21 -64 18 -22 28 -26
74 -26 46 0 56 4 74 26 27 35 27 93 0 128 -18 22 -28 26 -74 26 -46 0 -56 -4
-74 -26z m92 0 c11 -11 -5 -34 -24 -34 -18 0 -26 20 -12 33 8 9 28 9 36 1z m2
-61 c15 -15 15 -17 1 -25 -9 -5 -25 -6 -36 -3 -16 5 -18 10 -10 26 13 23 24
24 45 2z m-60 -53 c3 -5 1 -10 -4 -10 -6 0 -11 5 -11 10 0 6 2 10 4 10 3 0 8
-4 11 -10z m79 2 c2 -4 -4 -8 -14 -8 -10 0 -16 4 -14 8 3 4 9 8 14 8 5 0 11
-4 14 -8z"/>
</g>
</svg>
